<svg id="_x33_0" enable-background="new 0 0 64 64" height="512" viewBox="0 0 64 64" width="512" xmlns="http://www.w3.org/2000/svg"><g><g><g><path d="m45 62h-26-8v-6.8c0-4.77 3.36-8.87 8.04-9.81l6.96-1.39c1.25 1.87 3.35 3 5.61 3h.78c1.13 0 2.22-.28 3.18-.8.97-.52 1.81-1.26 2.43-2.2l6.96 1.39c4.68.94 8.04 5.04 8.04 9.81v6.8z" fill="#fcd770"/></g><g><path d="m20.99 18.72v.28h-.03-1c-.78 0-1.49.3-2.02.79v-.01l-.8-4.08c-.09-.47-.14-.94-.14-1.41 0-1.58.5-3.07 1.38-4.29s2.14-2.17 3.64-2.67l.98-.33 3.42 5.29-2.11 1.05c-2.04 1.02-3.33 3.1-3.32 5.38z" fill="#b27946"/></g><g><path d="m46.63 17.49c-.29 1.13-.57 2.29-.57 2.29v.01c-.53-.49-1.24-.79-2.02-.79h-1-.03v-.27c.01-2.1-1.62-3.84-3.72-3.99l-7.3-.51c-.85-.07-1.59-.45-2.13-1.03s-.86-1.36-.86-2.2l-2.58 1.29-3.42-5.29c.6-1.51 1.64-2.76 2.93-3.63s2.83-1.37 4.46-1.37h4.14c6.89 0 12.47 5.58 12.47 12.47 0 1.01-.12 2.03-.37 3.02z" fill="#b27946"/></g><g><path d="m20.99 19v5.79c0 .07 0 .14.01.21h-1.04c-.83 0-1.58-.34-2.12-.88s-.88-1.29-.88-2.12c0-.88.38-1.67.98-2.21.53-.49 1.24-.79 2.02-.79h1z" fill="#f0d0b4"/></g><g><path d="m46.06 19.79c.6.54.98 1.33.98 2.21 0 .83-.34 1.58-.88 2.12s-1.29.88-2.12.88h-1.04c.01-.07.01-.14.01-.21v-5.79h.03 1c.78 0 1.49.3 2.02.79z" fill="#f0d0b4"/></g><g><path d="m36.71 40.71c-.46-.46-.71-1.07-.71-1.71s.25-1.25.71-1.71l4.29-4.29c-.15-.16-.29-.33-.42-.5-.48-.62-.85-1.31-1.1-2.05l-.9-2.71c-.47-1.42-1.37-2.6-2.52-3.43-1.16-.83-2.56-1.31-4.06-1.31-2.99 0-5.64 1.91-6.58 4.74l-.9 2.71c-.25.74-.62 1.43-1.1 2.05-.13.17-.27.34-.42.5l4.29 4.29c.46.46.71 1.07.71 1.71s-.25 1.25-.71 1.71l-.58.58c-.21.21-.45.37-.71.49v2.22c1.25 1.87 3.35 3 5.61 3h.78c1.13 0 2.22-.28 3.18-.8.97-.52 1.81-1.26 2.43-2.2v-2.22c-.26-.12-.5-.28-.71-.49z" fill="#aab2bd"/></g><g><circle cx="32" cy="31" fill="#e6e9ed" r="4"/></g><g><path d="m27.29 37.29c.46.46.71 1.07.71 1.71s-.25 1.25-.71 1.71l-.58.58c-.21.21-.45.37-.71.49-.88.22-.94.22-1 .22-.64 0-1.25-.25-1.71-.71l-4.58-4.58c-.46-.46-.71-1.07-.71-1.71s.25-1.25.71-1.71l.58-.58c.46-.46 1.07-.71 1.71-.71s1.25.25 1.71.71l.29.29z" fill="#969faa"/></g><g><path d="m45.29 33.29c.46.46.71 1.07.71 1.71s-.25 1.25-.71 1.71l-4.58 4.58c-.46.46-1.07.71-1.71.71-.06 0-.12 0-1-.22-.26-.12-.5-.28-.71-.49l-.58-.58c-.46-.46-.71-1.07-.71-1.71s.25-1.25.71-1.71l4.29-4.29.29-.29c.46-.46 1.07-.71 1.71-.71s1.25.25 1.71.71z" fill="#969faa"/></g><g><path d="m43 25c-.04 2.73-.91 5.33-2.42 7.5-.48-.62-.85-1.31-1.1-2.05l-.9-2.71c-.47-1.42-1.37-2.6-2.52-3.43-1.16-.83-2.56-1.31-4.06-1.31-2.99 0-5.64 1.91-6.58 4.74l-.9 2.71c-.25.74-.62 1.43-1.1 2.05-1.51-2.17-2.38-4.77-2.42-7.5-.01-.07-.01-.14-.01-.21v-5.79-.28c-.01-2.28 1.28-4.36 3.32-5.38l2.11-1.05 2.58-1.29c0 .84.32 1.62.86 2.2s1.28.96 2.13 1.03l7.3.51c2.1.15 3.73 1.89 3.72 3.99v.27 5.79c0 .07 0 .14-.01.21z" fill="#f0d0b4"/></g><g><path d="m35 39-.62 2.49c-.22.89-1.02 1.51-1.94 1.51h-.88c-.92 0-1.72-.62-1.94-1.51l-.62-2.49z" fill="#f0d0b4"/></g></g><g><path d="m32 26c-2.757 0-5 2.243-5 5s2.243 5 5 5 5-2.243 5-5-2.243-5-5-5zm-1 7.816c-.847-.302-1.514-.969-1.816-1.816h1.816zm0-3.816h-1.816c.302-.847.969-1.514 1.816-1.816zm2 3.816v-1.816h1.816c-.302.847-.969 1.514-1.816 1.816zm0-3.816v-1.816c.847.302 1.514.969 1.816 1.816z"/><path d="m37 19c.552 0 1 .449 1 1h2c0-1.654-1.346-3-3-3s-3 1.346-3 3h2c0-.551.448-1 1-1z"/><path d="m28 20h2c0-1.654-1.346-3-3-3s-3 1.346-3 3h2c0-.551.448-1 1-1s1 .449 1 1z"/><path d="m45.157 44.412-6.157-1.232v-.18c.911 0 1.769-.355 2.414-1l4.586-4.585c.645-.645 1-1.502 1-2.415s-.355-1.77-1-2.414l-.586-.586c-.752-.75-1.826-1.051-2.848-.927.769-1.59 1.238-3.303 1.387-5.072h.091c2.206 0 4-1.794 4-4 0-.944-.342-1.801-.891-2.486l.445-1.785c.267-1.067.402-2.166.402-3.265 0-7.424-6.041-13.465-13.466-13.465h-4.149c-3.523 0-6.663 2.023-8.126 5.193l-.558.186c-3.41 1.137-5.701 4.316-5.701 7.911 0 .535.053 1.073.155 1.6l.706 3.609c-.557.687-.905 1.551-.905 2.502 0 2.206 1.794 4 4 4h.091c.148 1.77.618 3.483 1.387 5.072-1.022-.123-2.096.177-2.848.928l-.586.584c-.645.645-1 1.502-1 2.415s.355 1.77 1 2.414l4.586 4.586c.646.645 1.503 1 2.414 1v.18l-6.157 1.231c-5.124 1.026-8.843 5.562-8.843 10.787v7.802h44v-7.802c0-5.225-3.719-9.761-8.843-10.786zm-2.157-11.412c.378 0 .732.147 1 .414l.586.586c.268.267.414.622.414 1s-.146.733-.414 1l-4.586 4.585c-.535.535-1.465.535-2 0l-.586-.585c-.268-.267-.414-.622-.414-1s.146-.733.414-1l4.586-4.585c.268-.268.622-.415 1-.415zm-11.438 11h.877c1.379 0 2.576-.935 2.91-2.272l.213-.853c.127.192.272.373.438.539l.586.586c.128.128.27.235.414.34v1.344c-1.08 1.456-2.78 2.316-4.605 2.316h-.789c-1.826 0-3.526-.86-4.606-2.316v-1.344c.144-.105.286-.212.414-.34l.586-.585c.166-.166.312-.348.438-.54l.213.853c.334 1.337 1.532 2.272 2.911 2.272zm-1.282-4h3.439l-.31 1.242c-.112.446-.511.758-.971.758h-.877c-.46 0-.858-.312-.971-.758zm5.72-3.414c-.4.4-.673.888-.835 1.414h-6.33c-.162-.527-.435-1.014-.835-1.414l-3.657-3.658c.481-.661.867-1.394 1.123-2.165l.901-2.703c.81-2.429 3.073-4.06 5.633-4.06s4.823 1.631 5.633 4.06l.9 2.702c.257.772.643 1.506 1.124 2.167zm-12.432-6.455c-.046.138-.104.272-.16.407-.924-1.77-1.414-3.728-1.416-5.749l-.007-6.073c-.003-1.91 1.059-3.626 2.768-4.479l3.524-1.758c.567 1.502 1.961 2.62 3.645 2.749l7.302.51c1.567.109 2.793 1.425 2.791 2.997l-.007 6.054c-.002 2.021-.492 3.979-1.416 5.75-.057-.135-.115-.269-.161-.408l-.901-2.703c-1.083-3.247-4.108-5.428-7.53-5.428s-6.447 2.181-7.529 5.427zm20.476-6.131h-.035l.005-4h.031c1.103 0 2 .897 2 2s-.899 2-2.001 2zm-13.659-21h4.149c6.322 0 11.466 5.144 11.466 11.465 0 .936-.115 1.871-.342 2.78l-.252 1.009c-.427-.155-.882-.254-1.362-.254h-.1c-.34-2.28-2.22-4.093-4.582-4.258l-7.294-.509c-1.16-.089-2.068-1.07-2.068-2.234 0-1.102.901-1.999 2.085-1.999.512 0 .992.199 1.354.562.362.361.561.843.561 1.355v.083l2-.082c.001-1.046-.406-2.03-1.146-2.771-.74-.739-1.723-1.147-2.845-1.147-1.987 0-3.629 1.453-3.943 3.348l-1.291.644-2.63-4.064c1.158-2.395 3.547-3.928 6.24-3.928zm-10.429 21c-1.103 0-2-.897-2-2s.897-2 2-2h.031l.004 4zm.078-6h-.078c-.459 0-.893.094-1.304.237l-.534-2.732c-.078-.4-.118-.809-.118-1.215 0-2.732 1.741-5.149 4.334-6.014l.247-.082 2.393 3.697-1.113.555c-2.177 1.086-3.589 3.175-3.827 5.554zm3.966 22.586-4.586-4.586c-.268-.267-.414-.622-.414-1s.146-.733.414-1l.586-.585c.268-.268.622-.415 1-.415s.732.147 1 .414l4.586 4.586c.268.267.414.622.414 1s-.146.733-.414 1l-.586.585c-.535.536-1.465.535-2 .001zm28 20.414h-6v-8h-2v8h-24v-8h-2v8h-6v-5.802c0-4.275 3.043-7.987 7.235-8.826l6.349-1.27c1.461 1.82 3.66 2.897 6.021 2.897h.789c2.361 0 4.56-1.077 6.021-2.897l6.349 1.27c4.193.839 7.236 4.551 7.236 8.826z"/></g></g></svg>